<?xml version="1.0" encoding="iso-8859-1"?>
<!-- Uploaded to: SVG Repo, www.svgrepo.com, Generator: SVG Repo Mixer Tools -->
<svg fill="#000000" version="1.1" id="Layer_1" xmlns="http://www.w3.org/2000/svg" xmlns:xlink="http://www.w3.org/1999/xlink" 
	 viewBox="0 0 300 300" xml:space="preserve">
<g>
	<g>
		<g>
			<path d="M222.58,271.369L222.58,271.369c0.001-19.277,1.607-38.681,4.772-57.668c3.256-19.515,4.906-39.455,4.906-59.265V143.25
				c0-15.571-7.737-30.029-20.695-38.671c-2.632-1.752-5.448-3.111-8.337-4.287v-9.3c6.034-4.132,9.677-10.945,9.677-18.416v-3.068
				c0-14.376-1.582-28.776-4.698-42.794L205.64,15.15C203.652,6.232,195.881,0,186.745,0h-73.49c-9.14,0-16.906,6.232-18.895,15.155
				l-2.565,11.56c-3.116,14.023-4.698,28.423-4.698,42.798v3.068c0,7.471,3.644,14.279,9.677,18.416v9.3
				c-2.889,1.176-5.705,2.531-8.337,4.287c-12.958,8.637-20.695,23.095-20.695,38.666v11.187c0,19.81,1.65,39.745,4.906,59.26
				c3.165,18.992,4.771,38.395,4.771,57.673v18.953H0V300h77.419H222.58h58.065v-9.677H222.58V271.369z M96.774,69.513
				c0-13.669,1.505-27.363,4.471-40.698l2.565-11.56c0.992-4.461,4.877-7.577,9.445-7.577h73.49c4.568,0,8.453,3.116,9.445,7.577
				l2.565,11.565c2.966,13.331,4.471,27.024,4.471,40.694v3.068c0,4.829-2.685,9.169-7.002,11.332l-2.676,1.34v11.521h-7.766
				h-71.565h-7.765v-0.001V85.253l-2.676-1.34c-4.316-2.163-7.002-6.503-7.002-11.332V69.513z M217.812,212.105
				c-3.256,19.515-4.906,39.455-4.906,59.265v18.953H87.097V271.37c0-19.81-1.65-39.745-4.906-59.26
				c-3.165-18.992-4.771-38.395-4.771-57.673V143.25c0-12.329,6.126-23.777,16.389-30.619c6.068-4.04,13.127-6.179,20.41-6.179
				h71.56c7.287,0,14.347,2.139,20.415,6.179c10.263,6.842,16.389,18.29,16.389,30.619v11.187
				C222.583,173.714,220.977,193.118,217.812,212.105z"/>
			<rect x="101.613" y="266.129" width="96.774" height="9.677"/>
			<polygon points="140.323,77.419 174.194,77.419 174.194,67.742 150,67.742 150,24.194 111.29,24.194 111.29,33.871 
				140.323,33.871 			"/>
			<rect x="164.516" y="24.194" width="24.194" height="9.677"/>
			<polygon points="193.442,158.211 198.397,232.577 208.055,231.939 203.332,161.144 216.774,143.226 209.032,137.419 			"/>
			<polygon points="90.968,137.419 83.226,143.226 96.668,161.144 91.945,231.939 101.603,232.577 106.558,158.211 			"/>
			<rect x="145.161" y="116.129" width="9.677" height="9.677"/>
			<rect x="164.516" y="116.129" width="9.677" height="9.677"/>
			<rect x="183.871" y="116.129" width="9.677" height="9.677"/>
			<rect x="125.806" y="116.129" width="9.677" height="9.677"/>
			<rect x="106.452" y="116.129" width="9.677" height="9.677"/>
			<rect x="116.129" y="135.484" width="9.677" height="9.677"/>
			<rect x="135.484" y="135.484" width="9.677" height="9.677"/>
			<rect x="154.839" y="135.484" width="9.677" height="9.677"/>
			<rect x="174.194" y="135.484" width="9.677" height="9.677"/>
			<rect x="290.323" y="290.323" width="9.677" height="9.677"/>
		</g>
	</g>
</g>
</svg>