<?xml version="1.0" encoding="iso-8859-1"?>
<!-- Uploaded to: SVG Repo, www.svgrepo.com, Generator: SVG Repo Mixer Tools -->
<svg fill="#000000" version="1.1" id="Layer_1" xmlns="http://www.w3.org/2000/svg" xmlns:xlink="http://www.w3.org/1999/xlink" 
	 viewBox="0 0 300 300" xml:space="preserve">
<g>
	<g>
		<g>
			<path d="M251.613,251.613h-19.355V116.129h-4.839V82.258h-4.839V58.065h-4.839V33.871h-1.563l-8.115-20.289V0h-9.677v13.582
				l-8.115,20.289h-1.563v24.194h-4.839v24.194h-4.839v33.871h-4.839v24.194h-48.387V116.13h-4.839V82.258h-4.839V58.065h-4.839
				V33.871h-1.563l-8.115-20.289V0h-9.677v13.582l-8.115,20.289h-1.563v24.194h-4.839v24.194h-4.839v33.871h-4.839v135.484h-19.35
				v38.71H0V300h48.387h82.258h4.839h29.032h4.839h82.258h29.032v-9.677h-29.032V251.613z M222.581,125.806v125.806h-4.839V125.806
				H222.581z M208.065,67.742h4.839v14.516h-4.839V67.742z M203.226,27.542l2.531,6.329h-5.061L203.226,27.542z M193.548,67.742
				h4.839v14.516h-4.839V67.742z M188.71,91.935h9.677v24.194h-9.677V91.935z M183.871,125.806h4.839v125.806h-4.839V125.806z
				 M154.839,150h19.355v9.677h-19.355V150z M140.927,239.71l0.619-7.452h16.902l0.619,7.447c-4.378-1.563-7.567-2.381-7.891-2.463
				L150,236.947l-1.176,0.3C148.5,237.329,145.306,238.142,140.927,239.71z M145.161,248.477v17.652h-9.677v-13.66
				C138.929,250.785,142.379,249.44,145.161,248.477z M142.36,222.58l0.803-9.677h13.679l0.808,9.677H142.36z M143.971,203.226
				l0.808-9.677h10.452l0.803,9.677H143.971z M150,177.547l2.531,6.324h-5.062L150,177.547z M116.129,125.806v125.807h-4.839
				V125.806H116.129z M101.613,67.742h4.839v14.516h-4.839V67.742z M101.613,91.935h9.677v24.194h-9.677V91.935z M96.774,27.542
				l2.531,6.329h-5.061L96.774,27.542z M91.935,43.548h9.677v14.516h-9.677V43.548z M87.097,67.742h4.839v14.516h-4.839V67.742z
				 M77.419,125.806h4.839v125.806h-4.839V125.806z M87.097,290.322H58.065v-9.677h29.032V290.322z M87.097,270.967H58.065v-9.677
				h29.032V270.967z M91.935,116.129h-9.677V91.935h9.677V116.129z M91.936,125.806h9.677v125.806h-9.677V125.806z M125.806,290.323
				H96.774v-9.677h29.032V290.323z M125.806,270.967H96.774v-9.677h29.032V270.967z M125.806,150h19.355v9.677h-19.355V150z
				 M130.863,243.963c-1.698,0.842-3.397,1.766-5.056,2.777v-77.385h17.047l-5.807,14.516h-1.176L130.863,243.963z M164.516,290.323
				h-29.032v-14.516h29.032V290.323z M164.516,266.129h-9.677v-17.652c2.782,0.958,6.232,2.308,9.677,3.992V266.129z
				 M169.138,243.963l-5.008-60.092h-1.176l-5.806-14.516h17.047v77.385h-0.001C172.534,245.734,170.836,244.809,169.138,243.963z
				 M203.226,290.322h-29.032v-9.677h29.032V290.322z M203.226,270.967h-29.032v-9.677h29.032V270.967z M208.064,251.612h-9.677
				V125.806h9.677V251.612z M208.064,58.064h-9.677V43.548h9.677V58.064z M208.065,91.935h9.677v24.194h-9.677V91.935z
				 M241.935,290.323h-29.032v-9.677h29.032V290.323z M241.935,270.968h-29.032v-9.677h29.032V270.968z"/>
			<rect x="290.323" y="290.323" width="9.677" height="9.677"/>
		</g>
	</g>
</g>
</svg>