<?xml version="1.0" encoding="iso-8859-1"?>
<!-- Uploaded to: SVG Repo, www.svgrepo.com, Generator: SVG Repo Mixer Tools -->
<svg fill="#000000" version="1.1" id="Layer_1" xmlns="http://www.w3.org/2000/svg" xmlns:xlink="http://www.w3.org/1999/xlink" 
	 viewBox="0 0 300 300" xml:space="preserve">
<g>
	<g>
		<g>
			<path d="M180.319,145.161h21.556l6.189-18.571v-20.139h-34.921c-1.718-7.268-5.589-25.137-8.105-48.387h9.155V29.032h-4.839
				V9.677h-14.516V0h-9.677v9.677h-14.516v19.355h-4.839v29.032h9.155c-2.521,23.216-6.387,41.11-8.11,48.387H91.935v20.139
				l6.189,18.571h21.556c-5.265,21.237-25.732,95.826-64.006,145.161H0V300h280.645v-9.677h-36.324
				C206.052,240.987,185.584,166.398,180.319,145.161z M208.878,251.613h-33.475l20.715-27.619
				C199.926,233.086,204.184,242.386,208.878,251.613z M176.347,168.547l0.155-0.237c0.029,0.097,0.058,0.198,0.087,0.3
				l-21.75,15.537v-29.942L176.347,168.547z M158.725,145.161h11.613c0.531,2.245,1.306,5.395,2.327,9.295L158.725,145.161z
				 M185.778,221.651l-18.968,25.292c-3.827-2.269-7.863-3.842-11.971-4.544v-6.996L185.778,221.651z M154.839,224.811v-19.708
				l25.345,8.448L154.839,224.811z M189.125,206.327l-33.198-11.066l23.627-16.873C182.196,186.841,185.38,196.301,189.125,206.327z
				 M140.323,19.355h19.355v9.677h-19.355V19.355z M135.484,38.71h29.032v9.677h-29.032V38.71z M163.205,106.452h-8.366V58.065
				h0.474C157.674,80.376,161.216,97.766,163.205,106.452z M145.161,58.065v48.387h-8.366c1.989-8.686,5.531-26.076,7.892-48.387
				H145.161z M105.101,135.484l-3.488-10.461v-8.894h96.774v8.894l-3.489,10.461H105.101z M119.816,213.546l25.345-8.444v19.709
				L119.816,213.546z M145.161,235.404v6.997c-4.108,0.701-8.143,2.268-11.971,4.543l-18.968-25.292L145.161,235.404z
				 M145.161,154.2v29.942l-21.755-15.537c0.029-0.097,0.058-0.203,0.087-0.3l0.16,0.237L145.161,154.2z M127.336,154.456
				c1.021-3.9,1.795-7.05,2.327-9.295h11.613L127.336,154.456z M120.446,178.388l23.627,16.873l-33.198,11.066
				C114.625,196.301,117.804,186.842,120.446,178.388z M103.883,223.994l20.714,27.619H91.123
				C95.817,242.39,100.075,233.086,103.883,223.994z M67.771,290.322c4.461-6.164,8.661-12.609,12.614-19.224l19.224,19.224H67.771z
				 M85.394,262.427c0.212-0.382,0.416-0.759,0.624-1.137h31.848c-4.911,6.789-8.589,14.826-10.311,23.298L85.394,262.427z
				 M116.438,290.323c2.275-19.897,18.039-38.71,33.562-38.71s31.287,18.813,33.561,38.71H116.438z M182.134,261.286h31.848
				c0.208,0.382,0.412,0.759,0.624,1.137l-22.161,22.161C190.722,276.116,187.05,268.074,182.134,261.286z M200.39,290.322
				l19.225-19.224c3.948,6.615,8.153,13.06,12.615,19.224H200.39z"/>
			<rect x="290.323" y="290.323" width="9.677" height="9.677"/>
			<rect x="125.806" y="120.968" width="9.677" height="9.677"/>
			<rect x="145.161" y="120.968" width="9.677" height="9.677"/>
			<rect x="106.452" y="120.968" width="9.677" height="9.677"/>
			<rect x="164.516" y="120.968" width="9.677" height="9.677"/>
			<rect x="183.871" y="120.968" width="9.677" height="9.677"/>
		</g>
	</g>
</g>
</svg>